<svg width="24" height="24" viewBox="0 0 24 24" fill="none" xmlns="http://www.w3.org/2000/svg">
<path d="M6.99999 22H3.99999C3.46956 22 2.96085 21.7893 2.58578 21.4142C2.21071 21.0391 1.99999 20.5304 1.99999 20V13C1.99999 12.4696 2.21071 11.9609 2.58578 11.5858C2.96085 11.2107 3.46956 11 3.99999 11H6.99999M14 9V5C14 4.20435 13.6839 3.44129 13.1213 2.87868C12.5587 2.31607 11.7956 2 11 2L6.99999 11V22H18.28C18.7623 22.0054 19.2304 21.8364 19.5979 21.524C19.9654 21.2116 20.2077 20.7769 20.28 20.3L21.66 11.3C21.7035 11.0134 21.6842 10.7207 21.6033 10.4422C21.5225 10.1638 21.3821 9.90629 21.1919 9.68751C21.0016 9.46873 20.7661 9.29393 20.5016 9.17522C20.2371 9.0565 19.9499 8.99672 19.66 9H14Z" stroke="#15243C" stroke-width="3" stroke-linecap="round" stroke-linejoin="round"/>
</svg>
